<?xml version="1.0" encoding="UTF-8"?>
<svg width="496px" height="225px" viewBox="0 0 496 225" version="1.1" xmlns="http://www.w3.org/2000/svg" xmlns:xlink="http://www.w3.org/1999/xlink">
    <!-- Generator: Sketch 63.1 (92452) - https://sketch.com -->
    <title>logo_1 copy 5</title>
    <desc>Created with Sketch.</desc>
    <defs>
        <filter x="-6.5%" y="-21.8%" width="113.0%" height="143.6%" filterUnits="objectBoundingBox" id="filter-1">
            <feGaussianBlur stdDeviation="4" in="SourceGraphic"></feGaussianBlur>
        </filter>
        <filter x="-6.5%" y="-21.8%" width="113.0%" height="143.6%" filterUnits="objectBoundingBox" id="filter-2">
            <feGaussianBlur stdDeviation="4" in="SourceGraphic"></feGaussianBlur>
        </filter>
    </defs>
    <g id="logo_1-copy-5" stroke="none" stroke-width="1" fill="none" fill-rule="evenodd">
        <text id="Counter" filter="url(#filter-2)" font-family="SourceCodePro-Bold, Source Code Pro" font-size="44" font-weight="bold" fill="#000000">
            <tspan x="45" y="63">COUNTER</tspan>
        </text>
        <path d="M279.086032,193.467456 L279.086032,170.035503 L287.662639,170.035503 L287.662639,164.532544 L264,164.532544 L264,170.035503 L272.576607,170.035503 L272.576607,193.467456 L279.086032,193.467456 Z M302.22088,194 C303.92154,194 305.482923,193.674556 306.905027,193.023669 C308.327131,192.372781 309.543983,191.411243 310.555582,190.139053 C311.567182,188.866864 312.351539,187.29142 312.908652,185.412722 C313.465764,183.534024 313.744321,181.352071 313.744321,178.866864 C313.744321,176.440828 313.465764,174.303254 312.908652,172.454142 C312.351539,170.60503 311.567182,169.051775 310.555582,167.794379 C309.543983,166.536982 308.327131,165.590237 306.905027,164.954142 C305.482923,164.318047 303.92154,164 302.22088,164 C300.520219,164 298.958837,164.318047 297.536733,164.954142 C296.114629,165.590237 294.897777,166.536982 293.886177,167.794379 C292.874577,169.051775 292.090221,170.60503 291.533108,172.454142 C290.975995,174.303254 290.697438,176.440828 290.697438,178.866864 C290.697438,181.352071 290.975995,183.534024 291.533108,185.412722 C292.090221,187.29142 292.874577,188.866864 293.886177,190.139053 C294.897777,191.411243 296.114629,192.372781 297.536733,193.023669 C298.958837,193.674556 300.520219,194 302.22088,194 Z M302.22088,188.363905 C300.725471,188.363905 299.537941,187.565089 298.658289,185.967456 C297.778637,184.369822 297.338811,182.002959 297.338811,178.866864 C297.338811,175.849112 297.778637,173.556213 298.658289,171.988166 C299.537941,170.420118 300.725471,169.636095 302.22088,169.636095 C303.716288,169.636095 304.903818,170.420118 305.78347,171.988166 C306.663122,173.556213 307.102948,175.849112 307.102948,178.866864 C307.102948,182.002959 306.663122,184.369822 305.78347,185.967456 C304.903818,187.565089 303.716288,188.363905 302.22088,188.363905 Z M328.61044,194 C330.3111,194 331.872483,193.674556 333.294587,193.023669 C334.716691,192.372781 335.933543,191.411243 336.945143,190.139053 C337.956742,188.866864 338.741099,187.29142 339.298212,185.412722 C339.855325,183.534024 340.133881,181.352071 340.133881,178.866864 C340.133881,176.440828 339.855325,174.303254 339.298212,172.454142 C338.741099,170.60503 337.956742,169.051775 336.945143,167.794379 C335.933543,166.536982 334.716691,165.590237 333.294587,164.954142 C331.872483,164.318047 330.3111,164 328.61044,164 C326.909779,164 325.348397,164.318047 323.926293,164.954142 C322.504189,165.590237 321.287337,166.536982 320.275737,167.794379 C319.264137,169.051775 318.479781,170.60503 317.922668,172.454142 C317.365555,174.303254 317.086999,176.440828 317.086999,178.866864 C317.086999,181.352071 317.365555,183.534024 317.922668,185.412722 C318.479781,187.29142 319.264137,188.866864 320.275737,190.139053 C321.287337,191.411243 322.504189,192.372781 323.926293,193.023669 C325.348397,193.674556 326.909779,194 328.61044,194 Z M328.61044,188.363905 C327.115031,188.363905 325.927501,187.565089 325.047849,185.967456 C324.168197,184.369822 323.728371,182.002959 323.728371,178.866864 C323.728371,175.849112 324.168197,173.556213 325.047849,171.988166 C325.927501,170.420118 327.115031,169.636095 328.61044,169.636095 C330.105848,169.636095 331.293378,170.420118 332.17303,171.988166 C333.052682,173.556213 333.492508,175.849112 333.492508,178.866864 C333.492508,182.002959 333.052682,184.369822 332.17303,185.967456 C331.293378,187.565089 330.105848,188.363905 328.61044,188.363905 Z M365.731754,193.467456 L365.731754,187.964497 L352.9768,187.964497 L352.9768,164.532544 L346.511358,164.532544 L346.511358,193.467456 L365.731754,193.467456 Z M377.739004,193.467456 L377.739004,185.568047 L381.037699,181.174556 L387.151281,193.467456 L394.320445,193.467456 L384.908168,176.026627 L393.528758,164.532544 L386.359594,164.532544 L377.870952,176.381657 L377.739004,176.381657 L377.739004,164.532544 L371.185597,164.532544 L371.185597,193.467456 L377.739004,193.467456 Z M417.719188,193.467456 L417.719188,187.964497 L411.033833,187.964497 L411.033833,170.035503 L417.719188,170.035503 L417.719188,164.532544 L397.839053,164.532544 L397.839053,170.035503 L404.524408,170.035503 L404.524408,187.964497 L397.839053,187.964497 L397.839053,193.467456 L417.719188,193.467456 Z M437.423393,193.467456 L437.423393,170.035503 L446,170.035503 L446,164.532544 L422.337361,164.532544 L422.337361,170.035503 L430.913968,170.035503 L430.913968,193.467456 L437.423393,193.467456 Z" id="TOOLKIT" fill="#000000" fill-rule="nonzero"></path>
        <text id="Algorithmic" font-family="ZXX-Noise, ZXX" font-size="44" font-weight="normal" fill="#000000">
            <tspan x="131" y="106">ALGORITHMIC</tspan>
        </text>
        <text id="Censorship" font-family="ZXX-Xed, ZXX" font-size="44" font-weight="normal" fill="#000000">
            <tspan x="45" y="149">CENSORSHIP</tspan>
        </text>
        <rect id="Rectangle" fill="#000000" x="250" y="32" width="196" height="30"></rect>
        <rect id="Rectangle-Copy-2" fill="#000000" x="346" y="120" width="100" height="30"></rect>
        <rect id="Rectangle-Copy-4" fill="#000000" x="45" y="76" width="73" height="30"></rect>
        <rect id="Rectangle-Copy-3" fill="#000000" x="45" y="164" width="205" height="30"></rect>
    </g>
</svg>